<svg width="68" height="68" viewBox="0 0 68 68" fill="none" xmlns="http://www.w3.org/2000/svg">
<path d="M59.1687 36.4285H19.4375L14.5803 12.1428H63.1516C63.5071 12.1441 63.8573 12.2233 64.1789 12.3748C64.4999 12.5263 64.7841 12.7465 65.0109 13.0198C65.2382 13.293 65.4024 13.6127 65.4923 13.9563C65.5821 14.3 65.5957 14.6591 65.5316 15.0085L61.5487 34.4371C61.456 34.9988 61.1645 35.5087 60.7279 35.874C60.2912 36.2394 59.738 36.4362 59.1687 36.4285Z" stroke="black" stroke-linecap="round" stroke-linejoin="round"/>
<path d="M14.5804 12.1429L12.5404 4.37145C12.4284 3.8229 12.1303 3.32988 11.6966 2.97584C11.2629 2.6218 10.7202 2.42847 10.1604 2.42859H2.4375" stroke="black" stroke-linecap="round" stroke-linejoin="round"/>
<path d="M19.4375 36.4286L21.4775 46.6286C21.5895 47.1772 21.8875 47.6702 22.3212 48.0242C22.7549 48.3782 23.2977 48.5714 23.8575 48.5714H53.4374" stroke="black" stroke-linecap="round" stroke-linejoin="round"/>
<path d="M51.0089 65.5714C49.6678 65.5714 48.5803 64.4839 48.5803 63.1429C48.5803 61.8018 49.6678 60.7143 51.0089 60.7143C52.3504 60.7143 53.4375 61.8018 53.4375 63.1429C53.4375 64.4839 52.3504 65.5714 51.0089 65.5714Z" stroke="black" stroke-linecap="round" stroke-linejoin="round"/>
<path d="M26.7232 65.5714C25.382 65.5714 24.2947 64.4839 24.2947 63.1429C24.2947 61.8018 25.382 60.7143 26.7232 60.7143C28.0645 60.7143 29.1518 61.8018 29.1518 63.1429C29.1518 64.4839 28.0645 65.5714 26.7232 65.5714Z" stroke="black" stroke-linecap="round" stroke-linejoin="round"/>
</svg>
