<svg width="230" height="191" viewBox="0 0 230 191" fill="none" xmlns="http://www.w3.org/2000/svg">
<path d="M89.4443 29.3172C85.9395 30.6041 81.5585 33.1779 79.0762 35.5484C74.2571 40.0187 70.5333 48.7559 70.5333 55.5292C70.5333 62.1664 74.6224 70.7685 80.0986 75.5771C81.6319 76.9994 82.9462 78.2866 82.9462 78.5574C82.9462 78.7606 81.6319 79.8441 79.9524 80.7925C72.651 85.3303 66.7367 92.442 65.4224 98.5377C63.7428 105.853 68.6347 110.12 82.2157 113.439C86.9619 114.59 95.3585 114.725 99.0095 113.709C102.295 112.829 105.581 112.829 105.581 113.709C105.581 114.116 105.873 114.793 106.238 115.267C114.489 124.953 121.644 128.272 132.962 127.797C140.775 127.459 145.813 125.291 151.8 119.67C160.416 111.61 163.263 102.263 160.708 90.6132C160.051 87.4978 159.248 84.7888 159.029 84.5856C158.737 84.3824 158.08 83.3664 157.568 82.3505C156.327 79.6409 150.486 74.0196 146.251 71.5132C143.184 69.6845 142.819 69.2781 143.914 68.6686C149.171 65.8239 149.975 64.9435 153.187 58.7122C154.575 55.9356 153.114 49.9073 150.048 45.9112C146.689 41.441 138.365 39.7477 132.743 42.3892C131.21 43.1342 129.092 45.0307 127.851 46.8594C126.682 48.5527 125.441 49.975 125.222 49.975C125.003 50.0428 124.273 48.2817 123.543 46.1144C121.133 39.1381 115.949 33.5165 109.232 30.5364C104.339 28.369 93.8252 27.7594 89.4443 29.3172ZM105.8 31.1459C106.822 31.5523 107.552 32.2296 107.333 32.5006C107.114 32.8392 107.771 33.1101 108.72 33.1101C111.933 33.1101 117.556 38.1222 120.257 43.4052C121.133 45.2339 121.718 46.7917 121.499 46.9949C121.28 47.1981 119.6 46.724 117.701 45.9112C115.803 45.1662 113.539 44.6243 112.663 44.7598C111.495 44.963 112.225 45.3694 115.219 46.2498C117.482 46.8594 120.257 48.0786 121.352 48.8236C123.251 50.2459 123.251 50.3814 122.959 56.4095C122.667 61.3537 122.156 63.318 120.476 66.4334C119.381 68.601 118.139 70.3622 117.848 70.3622C117.556 70.3622 114.927 67.7207 112.006 64.4015C109.159 61.1505 104.924 56.8159 102.733 54.784C99.3748 51.6685 99.8857 52.6845 103.39 56.2063C109.232 62.0313 116.68 70.9037 116.241 71.6489C116.022 71.9196 114.635 72.9356 113.101 73.8164C110.546 75.3739 109.743 75.4419 102.88 75.2388C95.5776 75.0356 95.4319 74.9675 94.7014 73.2068L93.8986 71.3781L94.1176 73.2068C94.3367 74.7643 94.0443 75.1031 91.4157 76.0515C86.7428 77.6771 85.0633 77.4058 81.6319 74.4935C78.7843 72.0553 78.5652 71.5132 78.4919 68.1946C78.419 66.2303 78.2 65.3499 78.0538 66.2983C77.47 69.2781 76.5938 69.2106 74.9143 65.8919C72.87 62.0989 72.0667 53.4973 73.3809 51.1265C73.8919 50.3137 75.4252 49.0945 76.8129 48.3495C79.0033 47.2658 79.6605 47.1981 82.2157 48.0108C83.8224 48.4849 85.1367 49.0268 85.1367 49.1623C85.1367 49.2977 83.9681 51.3973 82.5809 53.9036C81.1204 56.3419 80.0986 58.4414 80.3176 58.6446C80.4633 58.7802 81.5585 57.1547 82.8 54.9872C83.9681 52.8196 85.4286 50.9909 86.0857 50.8558C87.3272 50.6523 90.9048 55.7324 91.051 57.8994C91.051 58.7802 91.1966 58.9154 91.4891 58.2382C92.0728 56.8834 87.1809 48.1463 85.8667 48.1463C85.2824 48.1463 83.6762 47.7399 82.4347 47.2658C80.0252 46.3853 79.7333 46.3853 74.7681 48.3495C73.8919 48.6881 73.4538 48.5527 73.4538 47.8754C73.4538 46.5885 76.9585 40.4928 78.6381 38.8672C79.8795 37.7158 80.2443 37.6481 81.7048 38.4608C83.3109 39.4091 83.3109 39.3413 81.9966 38.0545C80.7557 36.6998 80.7557 36.6321 83.2381 34.6002C85.8667 32.5006 90.4667 30.6719 91.6347 31.3491C92 31.5523 92.73 31.2814 93.2414 30.6719C94.0443 29.7913 95.1395 29.6559 99.0095 29.9268C101.638 30.13 104.705 30.6719 105.8 31.1459ZM144.28 43.947C149.682 46.5208 152.603 52.8877 150.997 58.5765C149.901 62.4377 148.368 64.334 144.863 66.2303C139.095 69.2781 132.159 67.5175 128.435 61.9632C123.032 54.1063 128.946 42.5924 138.292 42.5924C139.971 42.5924 142.673 43.202 144.28 43.947ZM128.727 64.9436C130.99 67.1787 130.844 67.6526 128.07 67.6526C126.756 67.6526 124.857 67.8558 123.908 68.127C122.301 68.5334 122.229 68.3978 122.667 66.6366C122.959 65.5531 123.689 63.5888 124.346 62.3021L125.441 59.8638L126.244 61.5569C126.756 62.5053 127.851 63.9952 128.727 64.9436ZM136.248 70.7005C137.27 71.2425 139.022 71.6489 140.118 71.7164C146.397 71.7845 155.743 80.7925 156.765 87.7686C157.057 89.7329 157.787 92.3068 158.444 93.4579C159.978 96.3026 159.905 100.908 158.299 105.853C157.203 109.307 156.692 109.984 154.867 110.458C153.699 110.729 151.435 110.662 149.829 110.323C146.835 109.713 145.01 110.323 145.01 111.881C145.01 112.287 143.549 114.048 141.797 115.741C139.095 118.247 138.584 119.128 138.949 120.618C139.168 121.702 139.606 122.514 139.971 122.514C140.337 122.514 140.629 122.921 140.629 123.395C140.629 124.614 135.882 125.901 131.429 125.901C124.711 125.901 117.482 123.259 112.225 118.857C109.597 116.69 105.946 111.136 104.486 106.937C103.025 103.076 102.587 94.6095 103.61 91.1553C104.12 89.4622 104.413 89.3265 106.676 89.7329C108.282 90.0037 109.232 89.8685 109.232 89.4622C109.232 89.0558 111.057 86.9558 113.32 84.7888L117.41 80.9281L117.044 77.135L116.68 73.41L119.381 72.1909C125.149 69.617 132.889 68.8717 136.248 70.7005ZM108.72 77.135C109.013 77.135 108.867 77.7446 108.356 78.4898C107.771 79.3701 106.895 79.7765 106.165 79.5733C105.435 79.4377 104.632 79.5733 104.413 79.9122C104.194 80.3185 103.61 80.2505 102.952 79.7765C102.222 79.2345 101.93 79.2345 101.93 79.7765C101.93 80.1829 101.419 80.5217 100.835 80.5217C100.251 80.5217 99.7395 80.1153 99.7395 79.6409C99.7395 79.0994 99.5204 79.0994 99.0823 79.7765C98.7176 80.3185 97.9143 80.5217 97.2571 80.3185C96.5272 80.0473 95.87 80.2505 95.5776 80.86C95.3585 81.5377 94.7014 81.7409 93.8252 81.5377C93.0224 81.2664 92.4381 81.4021 92.4381 81.876C92.4381 82.3504 91.8538 82.5536 90.9776 82.3505C90.0286 82.1473 89.5176 82.3505 89.5176 83.0276C89.5176 83.7047 89.0795 83.8404 88.13 83.5696C87.1809 83.2983 86.451 83.5696 86.0129 84.3143C85.1367 85.7366 81.9238 84.9919 82.5081 83.434C82.7272 82.892 82.9462 82.0116 82.9462 81.4696C82.9462 80.7925 83.3843 80.5893 84.3333 80.86C85.1367 81.0632 85.8667 80.86 86.0857 80.2505C86.3048 79.709 87.619 79.0994 88.9333 78.8281C90.2476 78.5574 91.4891 78.0834 91.7081 77.7446C91.9272 77.4058 94.2633 76.9994 96.819 76.7287C99.4476 76.5255 101.638 76.2547 101.784 76.1866C101.857 76.0515 103.39 76.1866 105.07 76.5255C106.749 76.7962 108.356 77.0675 108.72 77.135ZM77.3238 86.3462C77.7619 86.7526 77.1048 87.4978 74.7681 89.1909C73.0157 90.4781 72.5776 89.0558 74.2571 87.4302C75.7176 85.8723 76.5204 85.6015 77.3238 86.3462ZM79.9524 90.6813C81.7776 94.2707 84.6986 105.175 84.1871 106.53C83.6762 107.681 81.0476 107.953 79.5143 107.072C79.0033 106.801 78.0538 104.092 77.47 101.179C76.8129 98.1994 75.7905 94.7451 75.2062 93.4579C74.1843 91.2909 74.1843 91.0877 75.7176 89.5973C76.5938 88.717 77.6157 87.9717 77.9809 87.9717C78.2728 87.9717 79.149 89.1909 79.9524 90.6813Z" fill="black"/>
<path d="M104.212 34.4648L108.319 32.4329" stroke="black"/>
<path d="M89.4262 45.1323L86.1405 48.4342" stroke="black"/>
<path d="M91.1238 33.7874C91.1238 34.7356 91.27 35.0742 91.4891 34.6002C91.6347 34.1938 91.6347 33.381 91.4891 32.9069C91.27 32.5005 91.1238 32.8391 91.1238 33.7874Z" fill="black"/>
<path d="M103.39 34.2616C102.003 34.8034 99.5938 36.2258 97.9871 37.3772L95.1395 39.4768L93.4605 37.5804C92.5109 36.5644 91.7081 36.0226 91.7081 36.3612C91.7081 36.6999 92.219 37.3772 92.8033 37.8513C93.3871 38.3254 93.8986 39.0704 93.8986 39.4768C93.8986 40.3573 90.9048 43.2698 90.0286 43.2698C89.8095 43.2698 88.4224 42.3215 86.9619 41.1701C85.5014 39.9509 84.1871 39.2059 83.9681 39.3414C83.749 39.5445 84.9176 40.696 86.5966 41.9151C89.5905 44.0825 89.5905 44.0825 88.349 45.9112L87.1081 47.6722L88.8605 46.1821L90.6857 44.6243L94.4824 47.74C96.6 49.4332 98.0605 50.4492 97.8415 49.9073C97.6224 49.4332 96.1619 48.0786 94.6286 46.9949C91.3429 44.6243 91.051 43.4052 93.4605 41.7796C95.0667 40.696 95.4319 40.696 97.33 41.5765C98.4252 42.1183 99.8857 42.5924 100.47 42.5924C101.054 42.5247 100.47 42.1183 99.2286 41.5765C96.7462 40.6283 96.4538 40.0864 97.4034 38.8673C98.1333 37.919 102.441 35.142 103.244 35.142C103.537 35.142 104.486 34.6679 105.289 34.1261C107.041 32.907 106.676 32.907 103.39 34.2616Z" fill="black"/>
<path d="M102.661 43.2697C103.244 43.6084 104.413 43.947 105.216 43.947C106.457 43.947 106.457 43.8116 105.581 43.2697C104.997 42.9311 103.829 42.5924 103.025 42.5924C101.784 42.5924 101.784 42.7279 102.661 43.2697Z" fill="black"/>
<path d="M107.99 44.4212C108.648 44.5566 109.67 44.5566 110.181 44.4212C110.619 44.218 110.108 44.0825 108.867 44.0825C107.699 44.0825 107.261 44.218 107.99 44.4212Z" fill="black"/>
<path d="M91.8538 61.8956C91.8538 62.9792 92 63.3855 92.219 62.7084C92.3653 62.0988 92.3653 61.1504 92.219 60.6765C92 60.2701 91.8538 60.7441 91.8538 61.8956Z" fill="black"/>
<path d="M78.6381 62.6409C78.6381 63.3856 78.8571 63.5887 79.0762 63.0472C79.2952 62.5728 79.2224 61.9632 79.0034 61.76C78.7843 61.4893 78.5653 61.8957 78.6381 62.6409Z" fill="black"/>
<path d="M93.3143 68.6685C93.3143 69.7526 93.4605 70.1589 93.6795 69.4813C93.8252 68.8717 93.8252 67.9238 93.6795 67.4494C93.4605 67.043 93.3143 67.5174 93.3143 68.6685Z" fill="black"/>
<path d="M133.838 81.6729C129.019 84.0436 128.8 84.2468 129.311 86.2106C129.53 87.3622 130.041 89.9361 130.406 91.9681C130.771 94 131.356 95.8963 131.648 96.167C132.013 96.4383 134.714 97.1154 137.708 97.7925C143.914 99.0798 143.841 99.0798 146.47 93.7287C148.733 89.1234 148.733 88.5814 147.127 86.2106C145.739 84.1111 140.19 79.167 139.241 79.167C139.022 79.167 136.539 80.3181 133.838 81.6729Z" fill="black"/>
<path d="M110.619 104.363C109.013 107.14 108.575 111 109.67 113.439C110.181 114.658 112.152 116.757 113.978 118.112L117.263 120.686L120.403 119.535C122.082 118.925 124.054 117.977 124.857 117.435C126.171 116.487 126.171 116.351 124.93 113.98C124.273 112.626 123.47 110.255 123.251 108.697C122.813 105.582 122.156 104.905 119.454 104.905C118.359 104.905 117.263 104.633 116.899 104.295C116.461 103.956 115.146 103.482 113.832 103.211C111.861 102.873 111.349 103.008 110.619 104.363Z" fill="black"/>
<path d="M117.337 34.1261C117.92 34.6679 120.987 35.7516 124.127 36.4966C127.34 37.3094 130.844 38.3931 131.94 38.9349C134.276 40.0186 137.708 40.2218 137.708 39.2059C137.708 37.4448 124.273 33.1101 118.724 33.1101C116.533 33.1101 116.314 33.2455 117.337 34.1261Z" fill="black"/>
<path d="M121.644 38.7318C121.644 39.1382 129.019 41.2379 130.187 41.2379C130.48 41.1701 129.968 40.7637 128.946 40.2219C126.901 39.2737 121.644 38.1222 121.644 38.7318Z" fill="black"/>
<path d="M154.501 58.1707C154.501 59.2542 155.378 62.5053 156.4 65.4175C157.495 68.3978 158.444 72.8681 158.59 75.7803C159.029 81.6728 160.27 86.7526 161.146 86.2111C162.168 85.6691 161.876 75.2388 160.708 70.0234C159.54 64.9436 155.962 56.1388 155.086 56.1388C154.72 56.1388 154.501 57.0191 154.501 58.1707Z" fill="black"/>
<path d="M69.1462 65.6206C68.6347 67.3142 67.9776 69.5494 67.6129 70.6329C66.8095 72.8004 66.5905 86.5494 67.3205 88.243C67.6857 89.1233 67.9776 89.1909 68.781 88.5813C69.5109 88.0398 69.8034 86.0079 69.8034 81.402C69.8034 77.8802 70.1681 73.0036 70.5333 70.4297C71.0443 67.585 71.0443 65.2823 70.6796 64.2664C70.0224 62.6408 69.949 62.776 69.1462 65.6206Z" fill="black"/>
<path d="M153.114 64.266C153.114 64.808 153.844 68.1947 154.794 71.7165C156.546 78.083 157.349 77.7447 155.962 71.1745C155.232 67.5851 153.187 62.5729 153.114 64.266Z" fill="black"/>
<path d="M72.4319 72.868C72.2129 74.2903 72.0667 77.5414 72.1395 80.1829C72.2129 84.5175 72.2857 84.3143 72.7966 77.8121C73.381 70.4973 73.2347 68.3978 72.4319 72.868Z" fill="black"/>
<path d="M85.5014 117.435C92.5109 123.327 104.632 127.527 113.759 127.12L118.359 126.917L116.022 125.698C114.708 125.088 112.225 124.546 110.473 124.546C105.143 124.546 96.381 121.566 89.5176 117.367C88.13 116.554 86.0129 115.606 84.7714 115.403L82.581 114.996L85.5014 117.435Z" fill="black"/>
<path d="M93.1681 116.757C93.1681 117.638 106.895 122.514 109.305 122.514C111.422 122.514 108.575 121.092 104.632 120.144C102.295 119.602 99.1557 118.519 97.549 117.773C94.7748 116.487 93.1681 116.08 93.1681 116.757Z" fill="black"/>
<path d="M95.7238 136.128C91.5619 138.296 90.4667 142.766 93.3871 145.611C94.3367 146.491 96.3081 148.185 97.7681 149.404C100.397 151.436 100.981 152.993 100.032 155.364C99.2286 157.193 96.2347 157.87 93.8252 156.786C91.7809 155.838 91.7081 155.838 91.7081 157.396C91.7081 158.682 92.219 159.089 94.1905 159.495C99.9585 160.444 103.61 157.802 103.537 152.79C103.463 150.216 103.099 149.607 99.4476 146.491C96.1619 143.714 95.3585 142.563 95.3585 140.87C95.3585 139.244 95.7238 138.702 97.1843 138.363C98.2061 138.16 99.8857 138.093 100.908 138.296C102.441 138.566 102.733 138.363 102.514 137.144C102.368 136.061 101.711 135.654 99.7395 135.587C98.3524 135.451 96.5272 135.722 95.7238 136.128Z" fill="black"/>
<path d="M115.803 136.061C109.159 136.331 107.406 136.603 107.187 137.415C107.041 138.228 107.699 138.363 110.765 138.16L114.489 137.957L114.197 148.523L113.905 159.089H115.803H117.629L117.41 148.523L117.118 137.889L120.549 138.228C123.835 138.635 125.222 137.889 124.419 136.264C124.346 135.993 120.403 135.857 115.803 136.061Z" fill="black"/>
<path d="M134.422 136.535C129.238 139.041 127.048 143.308 127.705 149.471C128.362 155.296 132.086 158.954 137.927 159.563C143.111 160.105 147.346 157.938 149.682 153.468C152.092 149.132 152.092 146.017 149.756 141.75C146.762 136.128 139.971 133.825 134.422 136.535ZM144.352 139.921C149.756 145.475 148.88 154.28 142.6 156.719C137.635 158.615 132.67 155.635 131.137 149.607C130.406 146.694 130.406 145.814 131.501 143.375C133.181 139.379 135.08 138.092 139.168 138.092C141.943 138.092 142.892 138.431 144.352 139.921Z" fill="black"/>
<path d="M40.0127 142.902C40.3048 146.762 40.3048 151.977 40.0127 154.483L39.4286 159.089H43.9556C52.7175 159.089 56.9524 155.364 57.0252 147.575C57.0252 140.192 53.3016 136.738 44.6127 136.196L39.4286 135.925L40.0127 142.902ZM50.892 140.531C53.2286 142.766 53.3746 143.172 53.3746 147.778C53.3746 152.993 52.5714 154.483 48.8476 156.312C47.0952 157.125 43.5175 157.328 43.5175 156.515C43.4444 155.635 43.4444 139.108 43.4444 138.566C43.5175 138.296 44.6127 138.092 45.927 138.092C47.7524 138.092 48.9937 138.702 50.892 140.531Z" fill="black"/>
<path d="M62.5014 147.507V159.089H64.5462H66.5905L65.8605 154.687C64.9109 148.794 66.0062 147.642 68.7081 151.639C71.8476 156.244 74.9871 159.089 76.8857 159.089H78.7109L76.5938 156.515C75.4252 155.161 73.6728 152.858 72.7238 151.367L71.0443 148.726L72.5048 147.642C76.0095 145.137 76.5204 141.479 73.8919 138.499C72.3585 136.67 71.6286 136.467 67.3204 136.196L62.5014 135.925V147.507ZM70.7524 139.312C71.4095 139.854 71.9938 141.276 71.9938 142.36C71.9938 145.949 67.0286 149.336 65.8605 146.491C65.2762 145.137 65.2762 139.854 65.8605 138.499C66.3714 137.212 68.6347 137.619 70.7524 139.312Z" fill="black"/>
<path d="M156.327 147.507V159.089H158.444H160.489L159.978 154.348C159.54 150.555 159.686 149.607 160.489 149.607C161 149.607 162.022 150.42 162.68 151.436C165.235 155.499 169.178 159.089 171.003 159.089H172.829L170.784 156.515C169.689 155.161 168.52 153.874 168.301 153.671C168.082 153.467 167.28 152.316 166.476 151.097L165.089 148.929L167.28 147.169C169.105 145.746 169.47 144.933 169.47 142.427C169.47 138.025 167.499 136.535 161.292 136.196L156.327 135.925V147.507ZM164.943 139.65C167.644 142.495 165.235 147.507 161.292 147.575C159.686 147.575 159.613 147.304 159.613 142.969C159.613 140.395 159.832 138.092 160.124 137.889C160.927 137.144 163.482 138.092 164.943 139.65Z" fill="black"/>
<path d="M176.771 147.575V159.089H182.686C187.432 159.089 188.746 158.886 189.111 158.005C189.914 156.109 189.622 155.703 187.651 156.38C186.629 156.786 184.511 157.057 182.905 157.057H180.057V152.655C180.057 148.658 180.203 148.252 181.59 148.252C182.394 148.252 183.708 148.591 184.438 148.929C185.533 149.471 185.971 149.336 186.629 148.32C187.724 146.288 187.651 146.22 183.708 146.22H180.057V142.089V137.889L183.635 138.228C186.482 138.499 187.286 138.296 188.016 137.28C188.746 136.128 188.454 136.061 182.832 136.061H176.771V147.575Z" fill="black"/>
<path d="M114.343 45.3863L109.962 44.3703L105.581 43.6083L100.105 42.3384" stroke="black"/>
<path d="M91.3429 57.5779L94.3548 73.0712" stroke="black"/>
<path d="M80.9381 57.3239L79.0214 62.4036L78.2 67.7374" stroke="black"/>
<path d="M151.855 59.8637C148.295 59.0169 140.19 59.559 136.248 68.4994" stroke="black"/>
<path d="M146.926 44.3704C144.462 48.0956 136.74 55.6984 125.569 56.308" stroke="black"/>
<path d="M105.143 55.8776L97.4762 48.2579" stroke="black"/>
<path d="M142.655 43.1782C139.095 48.512 131.702 53.3378 126.226 53.3378M151.964 55.1157C146.853 56.2165 136.083 60.1447 133.893 67.0532" stroke="black"/>
</svg>
