<svg width="70" height="70" viewBox="0 0 70 70" fill="none" xmlns="http://www.w3.org/2000/svg">
<path d="M36.7679 66.918C35.6191 67.361 34.3464 67.361 33.1976 66.918C24.2333 63.476 16.5239 57.3965 11.0878 49.4811C5.6516 41.5659 2.74444 32.1878 2.75025 22.5856V7.7091C2.75025 6.39395 3.2727 5.1326 4.20266 4.20266C5.13265 3.27269 6.39395 2.75024 7.7091 2.75024H62.2565C63.5715 2.75024 64.833 3.27269 65.763 4.20266C66.693 5.1326 67.2155 6.39395 67.2155 7.7091V22.5856C67.221 32.1878 64.314 41.5659 58.878 49.4811C53.4415 57.3965 45.7322 63.476 36.7679 66.918Z" stroke="white" stroke-linecap="round" stroke-linejoin="round"/>
<path d="M50 20L30 42.5L20 35" stroke="white" stroke-linecap="round" stroke-linejoin="round"/>
</svg>
